<?xml version="1.0" standalone="no"?>
<!DOCTYPE svg PUBLIC "-//W3C//DTD SVG 20010904//EN"
 "http://www.w3.org/TR/2001/REC-SVG-20010904/DTD/svg10.dtd">
<svg version="1.0" xmlns="http://www.w3.org/2000/svg"
 width="727.000000pt" height="694.000000pt" viewBox="0 0 727.000000 694.000000"
 preserveAspectRatio="xMidYMid meet">

<g transform="translate(0.000000,694.000000) scale(0.100000,-0.100000)"
fill="#000000" stroke="none">
<path d="M3355 6890 c-703 -62 -1323 -309 -1870 -746 -141 -113 -386 -358
-499 -499 -406 -509 -647 -1077 -732 -1730 -22 -163 -25 -607 -6 -770 63 -527
220 -988 485 -1417 589 -954 1600 -1553 2714 -1607 850 -42 1642 214 2308 745
141 112 396 367 509 509 417 521 669 1140 736 1804 13 133 13 519 0 652 -71
705 -344 1349 -800 1884 -82 96 -299 312 -390 387 -519 432 -1104 685 -1785
774 -136 17 -535 26 -670 14z m545 -120 c875 -80 1670 -493 2229 -1160 606
-723 872 -1664 731 -2591 -210 -1382 -1279 -2485 -2650 -2733 -222 -40 -343
-50 -585 -50 -437 0 -790 65 -1188 220 -678 263 -1258 756 -1633 1386 -249
419 -403 902 -445 1398 -14 168 -6 533 16 690 165 1194 939 2183 2051 2623
299 119 581 184 954 220 83 9 415 6 520 -3z"/>
<path d="M2668 5945 c-45 -15 -61 -36 -38 -50 5 -3 47 -56 94 -118 120 -162
185 -213 284 -223 64 -7 76 3 74 66 -2 107 -101 254 -206 307 -62 31 -144 38
-208 18z"/>
<path d="M3184 5836 c-66 -21 -67 -22 -19 -84 25 -31 73 -95 107 -141 35 -47
73 -91 86 -99 l22 -14 0 160 0 161 -52 16 c-61 18 -89 18 -144 1z"/>
<path d="M2511 5643 c-159 -117 -188 -157 -198 -272 -6 -69 -6 -70 21 -77 40
-10 126 4 182 30 151 70 213 219 150 364 l-22 52 -133 -97z"/>
<path d="M1984 5531 c-15 -210 -12 -259 18 -321 15 -30 44 -72 65 -92 l38 -37
32 20 c52 33 87 117 92 216 6 163 -70 283 -207 322 l-29 9 -9 -117z"/>
<path d="M3117 5404 c-94 -29 -167 -125 -167 -222 l0 -32 103 5 c198 10 240
16 284 35 l43 19 0 94 0 95 -31 11 c-45 15 -175 12 -232 -5z"/>
<path d="M2617 5185 c-110 -18 -158 -30 -190 -48 -54 -32 -92 -73 -111 -119
l-16 -37 43 -25 c55 -32 109 -46 178 -46 160 0 267 92 285 245 8 66 25 63
-189 30z"/>
<path d="M3623 5135 c-39 -17 -63 -53 -69 -102 -6 -47 11 -81 55 -110 60 -41
145 -23 176 37 33 64 9 146 -51 175 -39 18 -69 19 -111 0z"/>
<path d="M3210 5051 c-88 -56 -125 -96 -140 -150 -13 -48 -5 -69 27 -77 63
-16 170 44 204 113 20 41 20 49 9 104 -7 32 -15 59 -19 59 -3 0 -40 -22 -81
-49z"/>
<path d="M3936 4996 c-75 -76 -133 -170 -157 -251 -34 -117 -28 -114 -84 -44
-80 100 -258 208 -326 197 -23 -3 -23 -4 6 -20 54 -29 123 -97 168 -166 55
-83 91 -172 130 -322 24 -96 30 -136 31 -240 1 -147 -12 -200 -99 -388 -112
-247 -128 -345 -101 -656 9 -110 14 -201 12 -204 -3 -2 -10 16 -16 39 -41 163
-157 452 -239 599 -104 184 -117 282 -62 463 18 60 31 110 28 113 -6 7 -100
-121 -125 -172 -26 -52 -42 -145 -42 -251 0 -46 -3 -83 -6 -83 -4 0 -61 32
-127 72 -123 74 -269 142 -288 136 -6 -2 31 -36 82 -74 255 -192 462 -420 519
-571 69 -181 60 -386 -27 -640 l-28 -82 130 -133 c72 -73 163 -177 203 -230
41 -54 77 -98 82 -98 5 0 19 17 31 37 46 74 145 190 245 288 l102 100 -57 91
c-96 153 -140 328 -121 481 43 339 330 654 755 829 93 39 90 41 -21 14 -168
-40 -301 -103 -520 -247 l-21 -14 19 68 c15 49 21 107 24 208 1 77 1 131 -2
120 -54 -204 -65 -230 -151 -364 -174 -272 -184 -315 -210 -876 -6 -143 -7
-147 -16 -85 -4 36 -9 193 -10 350 l-2 285 27 77 c15 43 55 135 89 205 106
224 126 354 107 711 -8 169 -8 248 0 330 13 119 50 265 89 351 36 80 43 101
37 101 -3 0 -29 -24 -58 -54z"/>
<path d="M1782 5011 c-90 -42 -140 -100 -157 -178 l-7 -33 48 0 c25 0 92 -7
148 -16 115 -18 216 -15 263 10 18 9 49 32 68 52 33 33 35 38 22 57 -64 97
-280 157 -385 108z"/>
<path d="M2763 4919 c-18 -5 -33 -11 -33 -13 0 -3 24 -40 54 -83 88 -128 151
-176 241 -185 29 -3 30 -1 33 38 4 56 -30 126 -89 186 -62 62 -126 80 -206 57z"/>
<path d="M2495 4786 c-179 -84 -241 -316 -120 -451 l35 -40 17 21 c90 108 158
203 180 250 23 50 25 65 20 136 -3 43 -11 85 -17 93 -18 21 -58 18 -115 -9z"/>
<path d="M3240 4733 c-97 -50 -72 -195 36 -210 113 -15 178 120 93 191 -17 14
-36 26 -42 26 -7 0 -21 3 -32 5 -11 3 -36 -2 -55 -12z"/>
<path d="M2118 4714 c-61 -19 -149 -99 -182 -166 -39 -78 -37 -164 7 -248 54
-107 58 -107 156 22 46 61 93 132 104 157 27 62 34 165 14 214 -18 41 -27 43
-99 21z"/>
<path d="M3487 4573 c-35 -37 -63 -104 -78 -185 l-12 -67 -71 65 c-46 42 -105
82 -166 113 -92 48 -189 86 -196 78 -3 -2 19 -20 48 -39 77 -51 159 -128 221
-211 119 -155 158 -289 203 -702 l7 -60 14 53 c7 29 32 95 54 145 23 51 53
120 67 155 l26 63 -52 162 c-29 89 -55 185 -58 212 -5 43 11 156 32 228 8 25
-9 21 -39 -10z"/>
<path d="M1613 4530 c-137 -29 -219 -112 -238 -241 -6 -41 8 -129 21 -129 3 0
21 8 42 19 20 10 78 33 127 51 150 54 219 111 245 201 17 59 13 76 -22 88 -46
16 -127 21 -175 11z"/>
<path d="M2739 4497 c-109 -41 -161 -107 -182 -232 l-6 -30 127 3 c137 2 230
15 274 38 42 22 97 73 114 106 14 27 14 32 -1 48 -9 10 -43 30 -77 45 -73 33
-192 43 -249 22z"/>
<path d="M1872 4194 c-63 -31 -118 -93 -133 -148 -18 -67 -7 -182 25 -251 28
-63 80 -125 104 -125 22 0 72 59 98 115 28 59 30 120 9 250 -8 50 -15 111 -15
138 0 57 -11 60 -88 21z"/>
<path d="M2220 4204 c-48 -21 -68 -41 -97 -97 -33 -66 -41 -137 -18 -161 34
-33 110 -2 177 72 44 50 114 169 105 179 -8 7 -79 23 -107 22 -14 0 -41 -7
-60 -15z"/>
<path d="M2800 4112 c-93 -49 -102 -191 -16 -247 63 -41 170 -21 207 39 29 48
26 126 -7 166 -51 61 -119 76 -184 42z"/>
<path d="M4184 3999 c-30 -15 -54 -62 -54 -106 1 -64 46 -103 120 -103 52 0
76 13 95 50 26 50 20 97 -19 136 -29 29 -41 34 -77 33 -24 0 -53 -5 -65 -10z"/>
<path d="M1174 3949 c14 -103 85 -197 181 -240 99 -44 283 -35 325 17 19 22
-4 65 -66 124 -65 62 -112 83 -224 105 -47 9 -113 22 -147 30 -34 8 -65 15
-69 15 -4 0 -4 -23 0 -51z"/>
<path d="M2249 3867 c-117 -44 -208 -152 -209 -248 l0 -37 65 -12 c115 -22
185 1 305 97 41 32 93 70 114 83 l39 24 -34 28 c-80 67 -199 95 -280 65z"/>
<path d="M2764 3562 c-21 -16 -52 -45 -67 -65 -49 -64 -59 -108 -62 -280 l-4
-158 37 7 c94 18 175 81 213 167 35 77 33 193 -3 262 -23 43 -62 95 -72 95 -2
0 -21 -13 -42 -28z"/>
<path d="M1763 3534 c-32 -14 0 -138 52 -207 22 -29 74 -72 138 -113 56 -38
119 -81 139 -97 21 -15 42 -26 47 -23 5 4 15 30 21 59 38 184 -122 377 -320
384 -36 1 -71 0 -77 -3z"/>
<path d="M2411 3511 c-44 -44 -65 -102 -65 -181 -1 -99 15 -240 26 -240 34 0
113 70 141 125 39 78 24 206 -31 274 -36 44 -46 47 -71 22z"/>
<path d="M1272 2315 c-146 -15 -341 -44 -358 -54 -12 -7 473 -417 490 -415 6
1 65 16 131 34 602 158 1298 125 1930 -93 72 -25 131 -44 133 -42 2 1 -58 43
-132 93 -374 249 -795 400 -1306 468 -171 23 -704 28 -888 9z"/>
<path d="M5260 2323 c-457 -33 -916 -162 -1277 -359 -90 -49 -318 -197 -328
-214 -3 -5 45 9 107 31 214 77 525 147 803 181 152 19 592 16 748 -5 143 -19
317 -54 449 -91 l87 -24 246 206 c171 143 242 208 232 213 -19 11 -268 46
-412 59 -109 9 -544 11 -655 3z"/>
<path d="M3423 1575 c-64 -27 -81 -119 -32 -171 24 -26 75 -40 112 -30 34 8
77 55 77 82 0 23 -3 24 -65 24 -51 0 -65 -3 -65 -15 0 -11 11 -15 41 -15 46 0
49 -17 6 -38 -22 -11 -31 -10 -55 2 -48 25 -57 76 -21 115 22 24 25 24 119 5
33 -7 34 -6 20 11 -16 19 -70 45 -92 45 -7 -1 -27 -7 -45 -15z"/>
<path d="M3985 1565 c-39 -38 -30 -68 27 -94 39 -19 46 -54 11 -59 -13 -2 -23
1 -23 7 0 6 -9 11 -20 11 -25 0 -26 -22 -2 -43 42 -38 116 -4 110 51 -2 18
-16 35 -45 55 -24 16 -43 33 -43 38 0 15 33 24 38 11 5 -17 42 -15 42 2 0 17
-37 46 -58 46 -7 0 -24 -11 -37 -25z"/>
<path d="M4543 1574 c-106 -53 -57 -215 61 -200 45 5 108 56 70 56 -12 0 -35
-7 -52 -15 -28 -14 -34 -14 -60 -1 -47 24 -57 76 -22 114 22 23 74 30 85 12 8
-13 55 -13 55 0 0 14 -41 39 -76 45 -17 3 -42 -1 -61 -11z"/>
<path d="M1472 1480 c-37 -92 -39 -100 -21 -100 11 0 24 11 31 25 9 20 18 25
48 25 30 0 39 -5 48 -25 7 -15 20 -25 32 -25 20 0 20 1 4 38 -8 20 -27 65 -42
100 -36 88 -50 83 -100 -38z m72 18 c9 -35 8 -38 -14 -38 -11 0 -20 3 -20 8 0
19 13 52 20 52 4 0 10 -10 14 -22z"/>
<path d="M1710 1480 l0 -100 49 0 c40 0 53 4 65 22 20 28 20 52 2 67 -10 8
-13 23 -9 47 8 47 -9 64 -63 64 l-44 0 0 -100z m75 60 c8 -13 -13 -40 -31 -40
-8 0 -14 10 -14 25 0 18 5 25 19 25 11 0 23 -5 26 -10z m3 -79 c23 -14 10 -46
-21 -49 -24 -3 -27 0 -27 27 0 32 19 41 48 22z"/>
<path d="M1920 1480 c0 -93 1 -100 20 -100 19 0 20 7 20 100 0 93 -1 100 -20
100 -19 0 -20 -7 -20 -100z"/>
<path d="M2050 1480 l0 -100 50 0 c38 0 50 4 50 15 0 10 -10 15 -30 15 l-30 0
0 85 c0 78 -2 85 -20 85 -19 0 -20 -7 -20 -100z"/>
<path d="M2230 1480 c0 -82 3 -100 15 -100 12 0 15 18 15 100 0 82 -3 100 -15
100 -12 0 -15 -18 -15 -100z"/>
<path d="M2340 1565 c0 -8 9 -15 20 -15 18 0 20 -7 20 -85 0 -78 2 -85 20 -85
18 0 20 7 20 85 0 78 2 85 20 85 11 0 20 7 20 15 0 12 -13 15 -60 15 -47 0
-60 -3 -60 -15z"/>
<path d="M2565 1510 c19 -38 35 -83 35 -100 0 -20 5 -30 15 -30 10 0 15 10 15
30 0 17 16 62 35 100 33 65 34 70 15 70 -13 0 -27 -14 -40 -40 -11 -22 -22
-40 -25 -40 -3 0 -14 18 -25 40 -13 26 -27 40 -40 40 -19 0 -18 -5 15 -70z"/>
<path d="M2870 1480 l0 -100 75 0 c60 0 75 3 75 15 0 12 -13 15 -55 15 -52 0
-55 1 -55 25 0 24 3 25 55 25 48 0 55 2 55 20 0 18 -7 20 -55 20 -52 0 -55 1
-55 25 0 24 3 25 55 25 42 0 55 3 55 15 0 12 -15 15 -75 15 l-75 0 0 -100z"/>
<path d="M3110 1480 c0 -93 1 -100 20 -100 17 0 19 8 22 71 l3 72 40 -71 c31
-55 45 -72 63 -72 21 0 22 3 22 100 0 82 -3 100 -15 100 -12 0 -15 -14 -15
-70 0 -38 -3 -70 -7 -70 -5 0 -25 32 -46 70 -31 57 -43 70 -63 70 -24 0 -24
-1 -24 -100z"/>
<path d="M3660 1480 l0 -100 50 0 c38 0 50 4 50 15 0 10 -10 15 -30 15 l-30 0
0 85 c0 78 -2 85 -20 85 -19 0 -20 -7 -20 -100z"/>
<path d="M3840 1480 c0 -82 3 -100 15 -100 12 0 15 18 15 100 0 82 -3 100 -15
100 -12 0 -15 -18 -15 -100z"/>
<path d="M4170 1480 c0 -82 3 -100 15 -100 11 0 15 11 15 40 l0 40 40 0 40 0
0 -40 c0 -33 3 -40 20 -40 19 0 20 7 20 100 0 93 -1 100 -20 100 -17 0 -20 -7
-20 -40 l0 -40 -40 0 -40 0 0 40 c0 29 -4 40 -15 40 -12 0 -15 -18 -15 -100z"/>
<path d="M4770 1480 l0 -100 75 0 c60 0 75 3 75 15 0 12 -13 15 -60 15 -57 0
-60 1 -60 25 0 24 3 25 60 25 53 0 60 2 60 20 0 18 -7 20 -61 20 -57 0 -60 1
-57 23 3 19 10 22 61 25 42 2 57 7 57 17 0 12 -16 15 -75 15 l-75 0 0 -100z"/>
<path d="M5010 1481 c0 -83 3 -101 15 -101 12 0 15 15 15 71 0 40 4 68 9 65 5
-4 26 -35 46 -71 25 -45 42 -65 55 -65 19 0 20 8 20 100 0 81 -3 100 -15 100
-11 0 -15 -17 -17 -72 l-3 -73 -40 70 c-28 49 -48 71 -63 73 -21 3 -22 1 -22
-97z"/>
<path d="M5250 1565 c0 -8 9 -15 20 -15 18 0 20 -7 20 -85 0 -69 3 -85 15 -85
12 0 15 16 15 81 0 72 2 81 20 86 11 3 20 12 20 19 0 10 -15 14 -55 14 -42 0
-55 -3 -55 -15z"/>
<path d="M5440 1480 l0 -100 75 0 c60 0 75 3 75 15 0 12 -13 15 -60 15 -57 0
-60 1 -60 25 0 24 3 25 60 25 53 0 60 2 60 20 0 18 -7 20 -60 20 -57 0 -60 1
-60 25 0 24 3 25 60 25 47 0 60 3 60 15 0 12 -15 15 -75 15 l-75 0 0 -100z"/>
<path d="M5680 1480 c0 -82 3 -100 15 -100 10 0 15 10 15 30 0 17 4 30 9 30 6
0 18 -13 28 -30 11 -20 25 -30 41 -30 l24 0 -26 34 -26 34 25 16 c18 12 25 25
25 50 0 46 -26 66 -83 66 l-47 0 0 -100z m84 57 c16 -11 17 -17 7 -36 -23 -43
-75 -11 -57 35 7 18 27 18 50 1z"/>
</g>
</svg>
